<svg id="Layer_1" data-name="Layer 1" xmlns="http://www.w3.org/2000/svg" xmlns:xlink="http://www.w3.org/1999/xlink" viewBox="0 0 1024 1023.94"><defs><style>.cls-1,.cls-7{fill:none;}.cls-2{clip-path:url(#clip-path);}.cls-3{fill:#fff;}.cls-4{fill:#f5a9b8;}.cls-5{fill:#5bcefa;}.cls-6{fill:#db3e43;}.cls-7{stroke:#000;stroke-linecap:round;stroke-linejoin:round;stroke-width:3px;}</style><clipPath id="clip-path" transform="translate(0 0.44)"><circle class="cls-1" cx="512" cy="512" r="511.5"/></clipPath></defs><g class="cls-2"><rect class="cls-3" y="409.35" width="1024" height="204.8"/><rect class="cls-4" y="204.67" width="1024" height="204.8"/><rect class="cls-5" width="1024" height="204.8"/><rect class="cls-5" y="818.69" width="1024" height="204.8"/><rect class="cls-4" y="614.02" width="1024" height="204.8"/></g><circle class="cls-1" cx="512" cy="512.44" r="511.5"/><path class="cls-6" d="M691.22,197.45c-85.2,0-157,57.6-178.66,135.94-21.63-78.34-93.47-135.94-178.66-135.94-102.3,0-185.32,83-185.32,185.32A186.52,186.52,0,0,0,150.44,409H874.68a186.52,186.52,0,0,0,1.86-26.27C876.54,280.48,793.51,197.45,691.22,197.45Z" transform="translate(0 0.44)"/><path class="cls-6" d="M512.56,835.17,726.14,613.58H299Z" transform="translate(0 0.44)"/><g id="g160"><path id="path96" class="cls-7" d="M512,333.51c-21.59-78.4-93.45-136.06-178.69-136.06-102.29,0-185.32,83-185.32,185.32a184.71,184.71,0,0,0,51.91,128.6l0,0L512,835.17,824.09,511.39l0,0A184.71,184.71,0,0,0,876,382.77c0-102.29-83-185.32-185.32-185.32-85.24,0-157.1,57.66-178.7,136.06" transform="translate(0 0.44)"/></g></svg>